<svg width="254" height="106" viewBox="0 0 127 53" fill="none" xmlns="http://www.w3.org/2000/svg">
<g id="logo B2WADS">
<path id="Shape" fill-rule="evenodd" clip-rule="evenodd" d="M3.00075 0.681899C2.99441 0.58917 3.02854 0.498314 3.09403 0.433574C3.15952 0.368835 3.2497 0.336801 3.34051 0.346021H11.8545C16.7011 0.346021 18.9895 2.80913 18.9895 6.55467C19.1301 8.58857 18.0908 10.5185 16.3314 11.4911V11.5623C18.3178 12.5191 19.5326 14.6108 19.3992 16.8447C19.3992 21.4758 16.5312 23.7048 11.5148 23.7048H3.34051C3.24871 23.7109 3.15879 23.6763 3.09374 23.6101C3.02869 23.5438 2.99481 23.4522 3.00075 23.3587V0.681899ZM11.7546 10.0457C12.5997 10.1433 13.4448 9.86303 14.0715 9.27741C14.6983 8.69178 15.045 7.85827 15.0223 6.99231C15.0257 6.13255 14.6731 5.31115 14.0511 4.72992C13.4291 4.14869 12.5953 3.86149 11.7546 3.93888H7.17779C7.12146 3.9287 7.06374 3.94641 7.02232 3.9866C6.98089 4.02678 6.9607 4.08464 6.96794 4.14244V9.87272C6.96794 10.0152 7.03789 10.0763 7.17779 10.0763L11.7546 10.0457ZM11.9545 20.0916H7.17781C7.03791 20.0916 6.96796 20.0305 6.96796 19.9288V13.8219C6.96796 13.6794 7.03791 13.6183 7.17781 13.6183H11.9545C14.1729 13.6183 15.422 14.8804 15.422 16.8346C15.422 18.7888 14.1729 20.0916 11.9545 20.0916Z" fill="#27ECD4"/>
<path id="Path" d="M20.6483 20.743C20.6306 20.5796 20.6899 20.4172 20.8082 20.3053L28.8926 10.0458C29.7915 9.07906 30.3168 7.81379 30.3715 6.48346C30.4121 5.66167 30.1093 4.86078 29.538 4.27895C28.9668 3.69712 28.1805 3.38871 27.3736 3.43003C25.7326 3.3725 24.3515 4.6703 24.2758 6.34097C24.2695 6.43055 24.2247 6.51276 24.1535 6.5657C24.0823 6.61865 23.9918 6.63697 23.9061 6.61578L20.9082 5.99491C20.8166 5.98401 20.7346 5.93217 20.6844 5.85348C20.6342 5.77479 20.621 5.67741 20.6483 5.58779C20.9481 2.83969 23.0966 0 27.4436 0C31.7905 0 34.1788 2.88041 34.1788 6.51399C34.1387 8.54016 33.3707 10.4811 32.0204 11.9695L25.355 20.1934V20.2646H33.8391C33.9309 20.2586 34.0208 20.2931 34.0859 20.3593C34.1509 20.4256 34.1848 20.5172 34.1788 20.6107V23.3486C34.1816 23.4412 34.1468 23.5309 34.0824 23.5964C34.0181 23.662 33.93 23.6975 33.8391 23.6947H20.9781C20.888 23.6977 20.8008 23.6619 20.738 23.596C20.6752 23.5301 20.6427 23.4402 20.6483 23.3486V20.743Z" fill="#27ECD4"/>
<path id="Path_2" d="M54.1149 23.6641C53.9161 23.6592 53.7467 23.5161 53.7051 23.3181L49.3282 7.36898H49.2683L44.8514 23.3181C44.8107 23.5125 44.6466 23.6546 44.4516 23.6641H41.9234C41.7271 23.6583 41.561 23.5145 41.5237 23.3181L35.8976 0.681957C35.8976 0.478394 35.8976 0.346079 36.1675 0.346079H39.3352C39.5361 0.328307 39.7139 0.47772 39.7349 0.681957L43.3724 16.397H43.4923L47.7193 0.681957C47.7573 0.487497 47.9244 0.347104 48.1191 0.346079H50.4874C50.685 0.338539 50.8568 0.482925 50.8871 0.681957L55.264 16.397H55.334L58.8615 0.681957C58.8826 0.47772 59.0604 0.328307 59.2612 0.346079H62.399C62.6289 0.346079 62.6988 0.478394 62.6589 0.681957L57.0728 23.3181C57.0429 23.5188 56.8724 23.6664 56.6731 23.6641H54.1149Z" fill="#27ECD4"/>
<path id="Shape_2" fill-rule="evenodd" clip-rule="evenodd" d="M82.4464 29.0007C82.2493 29.0008 82.0789 29.1406 82.0367 29.3366L74.0223 51.9727C73.9861 52.0521 73.9944 52.145 74.0439 52.2165C74.0934 52.2879 74.1766 52.3269 74.2621 52.3188H75.5912C75.801 52.3188 75.931 52.2476 76.0309 51.9727L78.0295 46.2425H88.0225L90.0211 51.9727C90.0308 52.0796 90.0836 52.1776 90.167 52.2432C90.2504 52.3088 90.3568 52.3362 90.4607 52.3188H91.8098C91.8953 52.3269 91.9785 52.2879 92.028 52.2165C92.0775 52.145 92.0858 52.0521 92.0496 51.9727L84.0552 29.3366C84.0294 29.1351 83.8547 28.9883 83.6555 29.0007H82.4464ZM83.0859 32.1458L87.3629 44.3595H78.669L82.986 32.1458H83.0859Z" fill="#383838"/>
<path id="Shape_3" fill-rule="evenodd" clip-rule="evenodd" d="M8.44637 29.0007C8.24933 29.0008 8.07889 29.1406 8.03666 29.3366L0.0222903 51.9727C-0.0138544 52.0521 -0.00561347 52.145 0.043898 52.2165C0.0934095 52.2879 0.176638 52.3269 0.262122 52.3188H1.59119C1.80104 52.3188 1.93095 52.2476 2.03088 51.9727L4.02948 46.2425H14.0225L16.0211 51.9727C16.0308 52.0796 16.0836 52.1776 16.167 52.2432C16.2504 52.3088 16.3568 52.3362 16.4607 52.3188H17.8098C17.8953 52.3269 17.9785 52.2879 18.028 52.2165C18.0775 52.145 18.0858 52.0521 18.0496 51.9727L10.0552 29.3366C10.0294 29.1351 9.85472 28.9883 9.65553 29.0007H8.44637ZM9.08593 32.1458L13.3629 44.3595H4.66904L8.98601 32.1458H9.08593Z" fill="#383838"/>
<path id="Shape_4" fill-rule="evenodd" clip-rule="evenodd" d="M94.0971 29.092C94.0324 29.1559 93.9972 29.2447 94.0002 29.3365V51.9727C93.9974 52.0653 94.0323 52.155 94.0966 52.2205C94.1609 52.286 94.249 52.3216 94.3399 52.3187H101.505C105.312 52.3187 107.82 50.7716 108.82 47.5859C109.249 46.2118 109.459 44.8989 109.459 40.6546C109.459 36.4103 109.249 35.1075 108.82 33.7335C107.81 30.5375 105.312 29.0006 101.505 29.0006H94.3399C94.25 28.9949 94.1618 29.028 94.0971 29.092ZM101.245 50.4663H96.1187C96.0639 50.4729 96.0092 50.4536 95.9703 50.4139C95.9313 50.3742 95.9123 50.3185 95.9188 50.2627V31.0566C95.9123 31.0009 95.9313 30.9451 95.9703 30.9054C96.0092 30.8657 96.0639 30.8464 96.1187 30.8531H101.245C104.203 30.8531 106.162 31.9116 106.961 34.3849C107.331 35.5146 107.501 36.7055 107.501 40.6546C107.501 44.6037 107.331 45.8047 106.961 46.9345C106.162 49.3976 104.243 50.4663 101.245 50.4663Z" fill="#383838"/>
<path id="k" d="M42.9551 43.4902L40.9688 45.7051V53H39V26H40.9688V43.1738L42.6035 41.0996L48.4922 33.9805H50.918L44.2383 42.0137L51.5508 53H49.2305L42.9551 43.4902Z" fill="#383838"/>
<path id="Path_3" d="M111.098 49.2528C111.035 49.1897 111 49.1036 111 49.0137C111 48.9237 111.035 48.8376 111.098 48.7745L111.908 47.7567C111.967 47.6834 112.055 47.6408 112.148 47.6408C112.24 47.6408 112.329 47.6834 112.387 47.7567C114.262 49.2622 116.566 50.1053 118.953 50.1587C122.62 50.1587 124.869 48.2656 124.869 45.3852C124.869 43.0951 123.589 41.4055 119.382 40.8661L118.383 40.7236C113.906 40.1434 111.788 37.945 111.788 34.5556C111.788 30.4844 114.616 28.0009 118.993 28.0009C121.311 27.9712 123.585 28.6521 125.518 29.9551C125.599 30.0013 125.655 30.0831 125.669 30.1768C125.682 30.2705 125.653 30.3653 125.588 30.4335L124.909 31.4513C124.857 31.5256 124.777 31.5752 124.689 31.5886C124.6 31.602 124.51 31.5782 124.439 31.5226C122.787 30.419 120.858 29.8219 118.883 29.8025C115.625 29.8025 113.706 31.6549 113.706 34.3623C113.706 36.7338 115.185 38.2707 119.093 38.7897L120.092 38.9221C124.739 39.5429 126.797 41.7414 126.797 45.202C126.797 49.1409 124.029 51.9602 118.713 51.9602C115.949 51.9487 113.269 50.9956 111.098 49.2528Z" fill="#383838"/>
<path id="Path_4" d="M20.0983 50.2528C20.0354 50.1897 20 50.1036 20 50.0137C20 49.9237 20.0354 49.8376 20.0983 49.7745L20.9077 48.7567C20.9665 48.6834 21.0546 48.6408 21.1475 48.6408C21.2405 48.6408 21.3285 48.6834 21.3873 48.7567C23.2617 50.2622 25.5663 51.1053 27.9527 51.1587C31.6202 51.1587 33.8686 49.2656 33.8686 46.3852C33.8686 44.0951 32.5895 42.4055 28.3824 41.8661L27.3831 41.7236C22.9063 41.1434 20.7878 38.945 20.7878 35.5556C20.7878 31.4844 23.6158 29.0009 27.9927 29.0009C30.311 28.9712 32.5846 29.6521 34.5181 30.9551C34.5993 31.0013 34.6549 31.0831 34.6686 31.1768C34.6823 31.2705 34.6525 31.3653 34.5881 31.4335L33.9086 32.4513C33.8566 32.5256 33.7772 32.5752 33.6886 32.5886C33.6 32.602 33.5099 32.5782 33.4389 32.5226C31.7869 31.419 29.8584 30.8219 27.8828 30.8025C24.6251 30.8025 22.7064 32.6549 22.7064 35.3623C22.7064 37.7338 24.1854 39.2707 28.0926 39.7897L29.0919 39.9221C33.7387 40.5429 35.7972 42.7414 35.7972 46.202C35.7972 50.1409 33.0292 52.9602 27.7129 52.9602C24.9492 52.9487 22.2687 51.9956 20.0983 50.2528Z" fill="#383838"/>
<g id="to">
<path d="M56.9079 41V43.4035H58.8431V44.2743H56.9079V50.5356C56.9079 51.0522 56.9986 51.4383 57.1799 51.6938C57.3682 51.9434 57.6785 52.0682 58.1109 52.0682C58.2992 52.0682 58.5781 52.0392 58.9477 51.9811L58.9791 52.852C58.7141 52.9507 58.334 53 57.8389 53C56.4791 53 55.7817 52.2221 55.7469 50.6662V44.2743H54V43.4035H55.7469V41H56.9079Z" fill="#383838"/>
<path d="M60.7259 47.6357C60.7259 46.2772 61.0955 45.2032 61.8347 44.4136C62.5739 43.6241 63.5816 43.2293 64.8577 43.2293C66.1409 43.2293 67.1485 43.6183 67.8808 44.3962C68.6199 45.1742 68.993 46.2453 69 47.6096V48.611C69 49.9927 68.6269 51.0697 67.8808 51.8418C67.1416 52.6139 66.1409 53 64.8787 53C63.6165 53 62.6158 52.6226 61.8766 51.8679C61.1374 51.1132 60.7538 50.074 60.7259 48.7504V47.6357ZM61.8975 48.611C61.8975 49.6967 62.159 50.5501 62.682 51.1713C63.212 51.7925 63.9442 52.103 64.8787 52.103C65.834 52.103 66.5628 51.8041 67.0649 51.2061C67.5739 50.6081 67.8319 49.7518 67.8389 48.6372V47.6357C67.8389 46.5501 67.5739 45.6967 67.0439 45.0755C66.5139 44.4485 65.7852 44.135 64.8577 44.135C63.9582 44.135 63.2434 44.4398 62.7134 45.0493C62.1834 45.6589 61.9114 46.4978 61.8975 47.566V48.611Z" fill="#383838"/>
</g>
</g>
</svg>
